<svg xmlns="http://www.w3.org/2000/svg" xmlns:xlink="http://www.w3.org/1999/xlink" version="1.1" x="0px" y="0px" viewBox="0 0 100 125" enable-background="new 0 0 100 100" xml:space="preserve"><g><path style="fill:#1B4D59;" d="M79.901,41.397c-0.049-0.173-0.109-0.438-0.291-0.522c-0.254-0.119-0.636,0.197-0.837,0.321   c-0.316,0.195-0.624,0.407-0.94,0.604c-0.583,0.365-1.164,0.733-1.739,1.11c-1.2,0.783-2.38,1.595-3.533,2.45   c-1.084,0.808-2.142,1.655-3.156,2.553c-0.388,0.344-0.563,1.064-0.879,1.505c-0.359,0.507-0.79,0.959-1.267,1.358   c-1.291,1.104-2.912,1.757-4.549,2.125c-3.601,0.828-8.087,0.55-12.469,0.072c-0.542-0.06-1.087-0.12-1.629-0.179   c-1.433-0.157-2.865-0.31-4.297-0.467c-1.431-0.157-2.862-0.315-4.293-0.478c-0.358-0.04-0.716-0.081-1.073-0.122   c-0.179-0.021-0.357-0.042-0.536-0.062c-0.104-0.013-0.238-0.061-0.337-0.041c-0.147,0.031-0.277,0.254-0.354,0.366   c-0.088,0.128-0.162,0.263-0.248,0.39c-0.223,0.32-0.44,0.646-0.651,0.975c-0.73,1.132-1.394,2.31-1.979,3.522   c-0.461,0.959-0.951,1.922-1.188,2.965c-0.09,0.394-0.142,0.8-0.135,1.203c0.004,0.202,0.021,0.402,0.055,0.602   c0.028,0.167,0.051,0.474,0.183,0.593c0.098,0.09,0.295,0.094,0.416,0.11c0.178,0.024,0.353,0.048,0.53,0.072   c0.352,0.045,0.705,0.09,1.057,0.133c0.705,0.088,1.411,0.167,2.119,0.243c1.089,0.117,2.179,0.226,3.268,0.335   c2.421,0.242,4.836,0.565,7.256,0.836c4.938,0.555,9.979,0.918,14.91,0.143c5.559-0.886,10.854-3.49,14.206-8.129   c0.033-0.045,0.064-0.089,0.096-0.132c0.618-0.875,1.154-1.81,1.594-2.786c0.435-0.967,0.775-1.975,1.018-3.007   c0.24-1.027,0.381-2.078,0.416-3.132c0.037-1.059-0.031-2.119-0.211-3.163C80.299,42.966,80.123,42.173,79.901,41.397z"/><path style="fill:#1B4D59;" d="M56.014,66.206c-0.217-0.004-0.435-0.009-0.649-0.016c-0.433-0.015-0.867-0.033-1.3-0.056   c-1.391-0.075-2.778-0.19-4.161-0.33c-1.062-0.108-2.123-0.228-3.183-0.353c-0.529-0.062-1.059-0.124-1.588-0.188   c-0.168-0.021-0.373-0.068-0.537-0.006c-0.019,0.007-0.037,0.017-0.055,0.027c-0.158,0.092-0.255,0.265-0.374,0.397   c-0.221,0.242-0.456,0.473-0.707,0.683c-1.425,1.2-3.283,1.729-5.125,1.442c-2.031-0.312-3.898-1.463-5.138-3.092   c-0.604-0.795-1.057-1.719-1.255-2.699c-0.378-1.862,0.349-3.577,1.109-5.244c0.859-1.888,1.905-3.688,3.087-5.392   c-0.006,0-0.013-0.001-0.018-0.002c3.5-5.065,8.406-9.593,14.18-11.89c1.398-0.556,2.855-0.968,4.347-1.179   c0.743-0.105,1.494-0.161,2.245-0.161c0.367,0,0.733,0.013,1.103,0.039c0.198,0.015,0.429,0.079,0.614-0.029   c0.208-0.12,0.39-0.35,0.565-0.512c2.63-2.406,5.497-4.537,8.466-6.501c0.284-0.189,0.573-0.376,0.862-0.563   c0.144-0.093,0.288-0.187,0.433-0.28c0.113-0.071,0.322-0.167,0.135-0.279c-0.246-0.147-0.515-0.265-0.772-0.39   c-0.519-0.251-1.046-0.486-1.578-0.702c-1.062-0.43-2.151-0.792-3.262-1.08c-1.104-0.288-2.228-0.502-3.362-0.643   c-1.136-0.141-2.28-0.208-3.426-0.201c-1.152,0.01-2.303,0.094-3.443,0.252c-6.174,0.862-11.922,3.745-16.778,7.585   c-5.277,4.172-9.64,9.539-12.681,15.535c-1.479,2.917-2.791,6.008-3.036,9.3c-0.239,3.18,0.451,6.386,1.94,9.202   c0.535,1.015,1.168,1.974,1.877,2.873c3.467,4.342,8.766,7.134,14.344,7.271c5.67,0.14,10.957-2.467,14.419-6.934   c0.378-0.487,0.737-0.992,1.078-1.508c0.567-0.859,1.084-1.753,1.565-2.664c0.148-0.285,0.291-0.575,0.436-0.865   c0.072-0.146,0.145-0.292,0.218-0.438c0.059-0.112,0.051-0.252-0.063-0.326C56.387,66.191,56.193,66.211,56.014,66.206z"/><path style="fill:#1B4D59;" d="M91.201,22.322c-1.101-1.469-3.279-1.877-4.838-0.907c0,0-9.115,5.676-15.088,9.386   c-5.785,3.594-11.331,7.691-15.655,13.01c-0.357,0.441-0.708,0.89-1.057,1.34c-0.047-0.016-0.521,0.721-0.573,0.796   c-0.189,0.272-0.375,0.549-0.556,0.825c-0.361,0.556-0.702,1.124-1.028,1.699c-0.258,0.455-0.503,0.918-0.739,1.385   c-0.125,0.247-0.24,0.498-0.371,0.744c-0.097,0.179-0.218,0.381-0.146,0.59c0.092,0.259,0.392,0.252,0.616,0.267   c0.354,0.021,0.712,0.062,1.068,0.095c0.678,0.059,1.354,0.108,2.03,0.146c1.354,0.073,2.711,0.094,4.066,0.022   c0.094-0.005,0.188-0.009,0.283-0.017c1.203-0.075,2.409-0.23,3.575-0.543c0.525-0.142,1.044-0.315,1.543-0.535   c0.283-0.122,0.475-0.455,0.677-0.684c0.27-0.307,0.547-0.608,0.819-0.907c1.136-1.208,2.366-2.34,3.647-3.391   c2.862-2.358,6.066-4.435,9.434-6.464l2.904-1.653c3.367-1.918,6.683-3.947,9.919-6.082C96.513,28.292,93.865,25.88,91.201,22.322z   "/><path style="fill:#1B4D59;" d="M20.21,54.345c0.003-0.01,0.007-0.021,0.011-0.03c-0.001,0.004-0.004,0.009-0.005,0.013   C20.214,54.333,20.212,54.339,20.21,54.345z"/><path style="fill:#1B4D59;" d="M20.216,54.327c0.46-1.238,0.193-0.519,0.005-0.013c0.357-0.963,0.75-1.91,1.174-2.845c0.282-0.62,0.576-1.232,0.885-1.841   c0.155-0.303,0.311-0.605,0.473-0.905c0.099-0.188,0.304-0.455,0.041-0.613c-0.192-0.115-0.422-0.188-0.627-0.28   c-1.249-0.553-2.477-1.149-3.713-1.73c-1.229-0.579-2.467-1.144-3.732-1.638c-1.822-0.708-3.675-1.672-5.667-1.748   c-3.515-0.132-5.454,5.333-4.38,8.144c1.029,2.692,4.804,3.822,7.262,4.684c0.979,0.342,1.95,0.698,2.903,1.155   c0.552,0.263,1.127,0.482,1.69,0.724c0.747,0.319,1.499,0.632,2.228,0.991c0.092,0.045,0.228,0.106,0.332,0.063   c0.124-0.05,0.128-0.228,0.146-0.342c0.048-0.318,0.104-0.638,0.168-0.955c0.131-0.642,0.295-1.278,0.49-1.904   c0.098-0.312,0.204-0.622,0.317-0.929C20.086,54.679,20.005,54.896,20.216,54.327z"/></g></svg>