<svg xmlns="http://www.w3.org/2000/svg" viewBox="0 0 1886.22 2486.8" x="0px" y="0px"><title>Champan</title><g data-name="Capa 2"><path style="fill:#323232;" d="M887.34,352,557.22,259.64a45,45,0,0,0-54.58,28.44L401.19,577.17c-.11.29-.2.58-.31.87L280.4,921.37q-.49,1.39-.89,2.82a262.55,262.55,0,0,0,139.83,307.39L246.71,1842.74l-133-37.09a45,45,0,0,0-24.17,86.69l362.92,101.18a45,45,0,0,0,24.17-86.69L333.4,1866.91,506,1255.79a262.55,262.55,0,0,0,279-190.67q.43-1.55.75-3.13L919.32,404.25A45,45,0,0,0,887.34,352ZM573.6,357.67l249.19,69.69L798.33,547.84H506.86Zm124.31,684.74A172.39,172.39,0,0,1,365.84,949.7L475.28,637.84H780.05Z" transform="translate(-56.59 -5.75)"/><path style="fill:#323232;" d="M1941.14,1836.91a45,45,0,0,0-55.43-31.26l-135.23,37.7-170.55-611.72a262.54,262.54,0,0,0,140-307.45q-.4-1.42-.89-2.82L1496.76,288.08a45,45,0,0,0-54.58-28.44L1112.07,352a45,45,0,0,0-32,52.29L1213.63,1062q.32,1.58.75,3.13a261.72,261.72,0,0,0,278.85,190.69l170.55,611.72-141,39.31a45,45,0,1,0,24.17,86.69l362.92-101.18A45,45,0,0,0,1941.14,1836.91ZM1425.81,357.67l66.74,190.16H1201.08l-24.46-120.48Zm-43.35,787.14a171.25,171.25,0,0,1-81-102.4l-82.15-404.57h304.78L1633.57,949.7a172.39,172.39,0,0,1-251.11,195.11Z" transform="translate(-56.59 -5.75)"/><path style="fill:#323232;" d="M829.08,251.7a45,45,0,1,0,63.64-63.64L775.08,70.41a45,45,0,1,0-63.64,63.64Z" transform="translate(-56.59 -5.75)"/><path style="fill:#323232;" d="M1134.39,260.66a44.86,44.86,0,0,0,31.82-13.18l118.1-118.1a45,45,0,0,0-63.64-63.64l-118.1,118.1a45,45,0,0,0,31.82,76.82Z" transform="translate(-56.59 -5.75)"/><path style="fill:#323232;" d="M1001,5.75a45,45,0,0,0-45,45V211.88a45,45,0,0,0,90,0V50.75A45,45,0,0,0,1001,5.75Z" transform="translate(-56.59 -5.75)"/></g></svg>