<svg xmlns="http://www.w3.org/2000/svg" xmlns:xlink="http://www.w3.org/1999/xlink" version="1.1" x="0px" y="0px" viewBox="0 0 100 125" style="enable-background:new 0 0 100 100;" xml:space="preserve"><path style="fill:#323232;" d="M54.734375,49.4980469c0-0.0585938-0.0073853-0.1153564-0.008728-0.173584  c0.0006714-0.0151978,0.008728-0.0278931,0.008728-0.0432129V14.4667969c0-0.5527344-0.4472656-1-1-1  c-0.0385132,0-0.071167,0.0177002-0.1085815,0.0219116c-0.1533813-0.0236816-0.3113403-0.0231323-0.4685669,0.0308228  l-26.8056641,9.0380859c-0.4462891,0.1498413-0.6970215,0.585022-0.6574097,1.0342407  c-0.0047607,0.0395508-0.0232544,0.0743408-0.0232544,0.1151733v26.6322632  c-1.3143921-1.3873291-3.1628418-2.2572632-5.2128906-2.2572632c-3.9775391,0-7.2138672,3.2587891-7.2138672,7.2636719  s3.2363281,7.2636719,7.2138672,7.2636719s7.2128906-3.2587891,7.2128906-7.2636719  c0-0.1181641-0.0120239-0.2333374-0.0175781-0.3501587c0.0027466-0.0302734,0.0175781-0.0563354,0.0175781-0.0873413V33.8242188  l25.0634766-8.4506836V44.486084c-1.3104858-1.383667-3.1517334-2.2507324-5.1933594-2.2507324  c-3.9658203,0-7.1923828,3.2578125-7.1923828,7.2626953s3.2265625,7.2636719,7.1923828,7.2636719  C51.5078125,56.7617188,54.734375,53.5029297,54.734375,49.4980469z M20.4580078,60.609375  c-2.875,0-5.2138672-2.3613281-5.2138672-5.2636719s2.3388672-5.2636719,5.2138672-5.2636719  c2.8740234,0,5.2128906,2.3613281,5.2128906,5.2636719S23.3320312,60.609375,20.4580078,60.609375z M27.6708984,31.7143555  v-7.4916992l25.0634766-8.4506836v7.4916992L27.6708984,31.7143555z M47.5410156,54.7617188  c-2.8632812,0-5.1923828-2.3613281-5.1923828-5.2636719s2.3291016-5.2626953,5.1923828-5.2626953  s5.1933594,2.3603516,5.1933594,5.2626953S50.4042969,54.7617188,47.5410156,54.7617188z"/><path style="fill:#323232;" d="M62.8857422,82.7363281c0-0.1181641-0.0120239-0.2333984-0.0175781-0.3500977  c0.0027466-0.0302734,0.0175781-0.0563965,0.0175781-0.0874023V61.2158203l25.0634766-8.4506836v19.1120605  c-1.3104858-1.3839111-3.1517334-2.2512207-5.1933594-2.2512207c-3.9658203,0-7.1923828,3.2587891-7.1923828,7.2636719  s3.2265625,7.2626953,7.1923828,7.2626953c3.9667969,0,7.1933594-3.2578125,7.1933594-7.2626953  c0-0.0588379-0.0073242-0.1158447-0.008728-0.1743164c0.0006714-0.0153809,0.008728-0.0280762,0.008728-0.043457V41.8574219  c0-0.057251-0.0233154-0.1068115-0.0325317-0.161438c-0.0089111-0.0541992-0.0028076-0.1080933-0.0211792-0.1618042  c-0.0039062-0.0114136-0.0131836-0.0187988-0.0174561-0.0299683c-0.0264282-0.069519-0.0690918-0.1268311-0.1095581-0.1878662  c-0.0321655-0.0487061-0.0571899-0.1016235-0.0966187-0.1433105c-0.0419922-0.0443726-0.0947266-0.0736084-0.1442261-0.1097412  c-0.0550537-0.0401001-0.1053467-0.0845337-0.1671143-0.1126709c-0.0465698-0.0211792-0.0986938-0.0263672-0.1488037-0.0402832  c-0.0764771-0.0213623-0.1506348-0.0441895-0.2313232-0.0466309c-0.0109863-0.0003662-0.0201416-0.0062866-0.031189-0.0062866  c-0.0547485,0-0.1019287,0.0227051-0.1542969,0.0311279c-0.0565796,0.0090942-0.112854,0.0031128-0.1689453,0.022583  L61.5625,50.1513672c-0.0114136,0.0039062-0.0187378,0.0131836-0.0299072,0.0174561  c-0.0704346,0.0267944-0.1286011,0.0699463-0.1903687,0.111145c-0.0473633,0.0315552-0.0991211,0.0557251-0.1397095,0.0941772  c-0.0480957,0.0454102-0.0802612,0.102417-0.1186523,0.1566162c-0.0358887,0.0507812-0.0770874,0.0963745-0.1029663,0.152771  c-0.024231,0.0528564-0.0309448,0.1118774-0.0457764,0.1692505c-0.0181885,0.0700073-0.039917,0.1372681-0.0424805,0.2105713  c-0.0004272,0.012085-0.006897,0.0220947-0.006897,0.0343018v26.6328125  c-1.3143921-1.387207-3.1628418-2.2568359-5.2128906-2.2568359c-3.9775391,0-7.2128906,3.2578125-7.2128906,7.2626953  S51.6953125,90,55.6728516,90S62.8857422,86.7412109,62.8857422,82.7363281z M82.7558594,82.1523438  c-2.8632812,0-5.1923828-2.3603516-5.1923828-5.2626953s2.3291016-5.2636719,5.1923828-5.2636719  s5.1933594,2.3613281,5.1933594,5.2636719S85.6191406,82.1523438,82.7558594,82.1523438z M62.8857422,59.105957v-7.2930908  l25.0634766-8.557373v7.3997803L62.8857422,59.105957z M50.4599609,82.7363281c0-2.9023438,2.3388672-5.2626953,5.2128906-5.2626953  s5.2128906,2.3603516,5.2128906,5.2626953S58.546875,88,55.6728516,88S50.4599609,85.6386719,50.4599609,82.7363281z"/><path style="fill:#323232;" d="M16.4130859,23.9501953l1.0234375,1.8291016c0.1767578,0.3164062,0.5107422,0.5117188,0.8730469,0.5117188  s0.6962891-0.1953125,0.8730469-0.5117188l1.0234375-1.8291016c0.9277344-1.6582031,2.3154297-3.015625,4.0136719-3.9228516  l1.8710938-1c0.3251953-0.1738281,0.5283203-0.5126953,0.5283203-0.8818359s-0.203125-0.7080078-0.5283203-0.8818359  l-1.8710938-1.0009766c-1.6982422-0.9072266-3.0859375-2.2636719-4.0136719-3.921875l-1.0234375-1.8291016  c-0.3535156-0.6328125-1.3925781-0.6328125-1.7460938,0l-1.0234375,1.8291016  c-0.9277344,1.6582031-2.3154297,3.0146484-4.0136719,3.921875l-1.8710938,1.0009766C10.203125,17.4375,10,17.7763672,10,18.1455078  s0.203125,0.7080078,0.5283203,0.8818359l1.8710938,1C14.0976562,20.9345703,15.4853516,22.2919922,16.4130859,23.9501953z   M13.1210938,18.1455078l0.2216797-0.1191406c2.0351562-1.0878906,3.7001953-2.7167969,4.8164062-4.7089844l0.1503906-0.2695312  l0.1503906,0.2695312c1.1162109,1.9921875,2.78125,3.6210938,4.8164062,4.7089844l0.2216797,0.1191406l-0.2216797,0.1181641  c-2.0351562,1.0878906-3.7011719,2.7167969-4.8164062,4.7099609l-0.1503906,0.2695312l-0.1503906-0.2695312  c-1.1152344-1.9931641-2.78125-3.6220703-4.8164062-4.7099609L13.1210938,18.1455078z"/><path style="fill:#323232;" d="M10.1669922,79.9228516c0,0.3662109,0.2001953,0.7021484,0.5205078,0.8779297l2.3271484,1.2705078  c2.1552734,1.1757812,3.9169922,2.9345703,5.0947266,5.0859375l1.2724609,2.3232422  C19.5576172,89.8007812,19.8935547,90,20.2587891,90s0.7011719-0.1992188,0.8769531-0.5195312l1.2734375-2.3232422  c1.1787109-2.1513672,2.9394531-3.9101562,5.0947266-5.0859375l2.3271484-1.2705078  c0.3203125-0.1757812,0.5205078-0.5117188,0.5205078-0.8779297s-0.2001953-0.7021484-0.5205078-0.8779297l-2.3271484-1.2705078  c-2.1552734-1.1757812-3.9160156-2.9345703-5.0947266-5.0859375l-1.2734375-2.3232422  c-0.3515625-0.640625-1.4023438-0.640625-1.7539062,0l-1.2724609,2.3232422  c-1.1777344,2.1513672-2.9394531,3.9101562-5.0947266,5.0859375L10.6875,79.0449219  C10.3671875,79.2207031,10.1669922,79.5566406,10.1669922,79.9228516z M13.9736328,79.5302734  c2.4912109-1.3603516,4.5273438-3.3935547,5.8896484-5.8808594l0.3955078-0.7226562l0.3964844,0.7226562  c1.3623047,2.4873047,3.3984375,4.5205078,5.8896484,5.8808594l0.7197266,0.3925781l-0.7197266,0.3925781  c-2.4912109,1.3603516-4.5273438,3.3935547-5.8896484,5.8808594l-0.3964844,0.7226562l-0.3955078-0.7226562  c-1.3623047-2.4873047-3.3984375-4.5205078-5.8896484-5.8808594l-0.7197266-0.3925781L13.9736328,79.5302734z"/><path style="fill:#323232;" d="M80.2705078,27.1435547c-2.7910156-1.5234375-5.0722656-3.8007812-6.5986328-6.5869141l-1.6220703-2.9609375  c-0.3515625-0.640625-1.4023438-0.640625-1.7539062,0l-1.6220703,2.9609375  c-1.5263672,2.7861328-3.8076172,5.0634766-6.5986328,6.5869141l-2.9648438,1.6191406  c-0.3212891,0.1757812-0.5205078,0.5126953-0.5205078,0.8779297c0,0.3662109,0.2001953,0.7021484,0.5205078,0.8779297  l2.9648438,1.6181641c2.7910156,1.5244141,5.0722656,3.8027344,6.5986328,6.5878906l1.6220703,2.9599609  c0.1757812,0.3203125,0.5117188,0.5195312,0.8769531,0.5195312s0.7011719-0.1992188,0.8769531-0.5195312l1.6220703-2.9599609  c1.5263672-2.7851562,3.8076172-5.0634766,6.5986328-6.5878906l2.9648438-1.6181641  c0.3203125-0.1757812,0.5205078-0.5117188,0.5205078-0.8779297c0-0.3652344-0.1992188-0.7021484-0.5205078-0.8779297  L80.2705078,27.1435547z M79.3115234,30.3808594c-3.1269531,1.7089844-5.6835938,4.2617188-7.3935547,7.3828125l-0.7451172,1.359375  l-0.7451172-1.359375c-1.7099609-3.1210938-4.2666016-5.6738281-7.3935547-7.3828125l-1.3574219-0.7402344l1.3574219-0.7412109  c3.1259766-1.7070312,5.6835938-4.2597656,7.3935547-7.3818359l0.7451172-1.3603516l0.7451172,1.3603516  c1.7099609,3.1220703,4.2675781,5.6748047,7.3935547,7.3818359l1.3574219,0.7412109L79.3115234,30.3808594z"/><path style="fill:#323232;" d="M88.7597656,15.5888672C88.7597656,12.5068359,86.2539062,10,83.1738281,10s-5.5859375,2.5068359-5.5859375,5.5888672  c0,3.0810547,2.5058594,5.5878906,5.5859375,5.5878906S88.7597656,18.6699219,88.7597656,15.5888672z M83.1738281,19.1767578  c-1.9775391,0-3.5859375-1.609375-3.5859375-3.5878906S81.1962891,12,83.1738281,12s3.5859375,1.6103516,3.5859375,3.5888672  S85.1513672,19.1767578,83.1738281,19.1767578z"/><path style="fill:#323232;" d="M40.0732422,61.8144531c-3.0800781,0-5.5859375,2.5068359-5.5859375,5.5888672  c0,3.0810547,2.5058594,5.5878906,5.5859375,5.5878906s5.5859375-2.5068359,5.5859375-5.5878906  C45.6591797,64.3212891,43.1533203,61.8144531,40.0732422,61.8144531z M40.0732422,70.9912109  c-1.9775391,0-3.5859375-1.609375-3.5859375-3.5878906s1.6083984-3.5888672,3.5859375-3.5888672  s3.5859375,1.6103516,3.5859375,3.5888672S42.0507812,70.9912109,40.0732422,70.9912109z"/></svg>