<svg xmlns="http://www.w3.org/2000/svg" data-name="Слой 1" viewBox="0 0 100 125" x="0px" y="0px"><title>Безымянный-1-01-01-01-01-01-01-01</title>
<path style="fill:#323232;" d="M69.14585,54.86285c-1.51808,4.57921-2.77539,9.56155-4.81889,14.19738A105.53886,105.53886,0,0,1,57.0535,81.9857a10.9494,10.9494,0,0,1-4.16333,4.18807,5.50167,5.50167,0,0,1-4.75541-.67152C43.02032,81.488,38.12791,77.18508,33.23992,72.89008c-2.90546-2.55308-5.96965-5.05406-7.16049-8.975-1.08373-3.56831-4.06054-2.39952-6.40831-2.54721a50.34707,50.34707,0,0,0-7.04052.19661c-2.33167.18166-3.02942-1.765-4.42392-2.93127-5.29625-4.429-4.28361-16.89049-.81291-21.58075C13.52945,28.76032,21.81929,23.724,31.13619,20.45389c11.74232-4.12134,23.80309-7.52523,36.45044-6.81458,4.38092,0.24617,9.00632-.06268,13.13364,1.987,5.3184,2.64123,10.08867,6.13545,12.77918,11.53059,2.29273,4.59758,3.04047,9.64023-.1425,14.24506a16.32849,16.32849,0,0,1-4.75554,4.12734c-4.61841,2.93176-9.28794,5.806-14.10814,8.38347C72.93207,54.74756,70.84069,54.59077,69.14585,54.86285Zm-46.1155-.87141c1.17873-3.03307,1.97228-5.61121,3.15394-7.99721,2.06853-4.177,4.96969-7.893,9.46127-9.40256,4.4281-1.48826,8.94833-2.82812,13.83638-2.66532,6.8715,0.22885,11.8033,3.41362,15.59457,8.82175,0.674,0.96157,1.11462,2.09251,1.82767,3.01841a1.88285,1.88285,0,0,0,1.55865.6924C75.2829,43.34393,82.821,41.48845,86.796,33.89c1.692-3.23443.82021-5.32374-1.99856-6.91775-11.12809-6.29267-23.16688-5.65005-35.07448-4.11565-5.92846.764-11.70912,3.16268-17.38579,5.28008-9.0125,3.3616-17.031,8.31528-22.75569,16.316a48.12776,48.12776,0,0,0-2.89061,5.38116C11.68312,53.37592,17.65571,53.30992,23.03035,53.99144ZM6.71718,44.57806c1.4385-1.50419,2.33423-2.52125,3.31385-3.44981,2.77027-2.62618,5.2641-5.70385,8.42947-7.72073A82.80687,82.80687,0,0,1,40.94287,23.05739,88.34016,88.34016,0,0,1,61.6417,19.71112,48.28069,48.28069,0,0,1,85.94237,24.816a3.96772,3.96772,0,0,0,1.54973.08183c-0.05187-.602.13532-1.45693-0.19249-1.76668-3.14658-2.97222-6.54-6.07081-10.85233-6.59043-5.84257-.704-11.81142-0.30564-17.72028-0.53133-4.47017-.17072-8.65991,1.03558-12.87361,2.20814C41.055,19.55281,36.16567,20.643,31.493,22.33015A53.51773,53.51773,0,0,0,11.1162,35.18137C8.78958,37.561,6.67486,40.23486,6.71718,44.57806ZM56.897,74.29749c1.90075-4.3,3.93683-8.44949,5.587-12.74716,2.43354-6.33783,3.90056-12.44768-1.71245-17.9532-1.93421,4.11844-3.80188,8.09514-5.97608,12.72458,3.38282-1.034,5.94881-1.81832,8.51479-2.60264,0.11335,0.92663.04588,1.1919-.1244,1.33241a3.05635,3.05635,0,0,1-1.06357.66688c-5.03048,1.32422-7.51414,4.92133-9.04545,9.61943-1.78678,5.48228-1.671,6.08281,3.39761,8.92107A1.61059,1.61059,0,0,0,56.897,74.29749ZM39.89977,60.06456a99.52911,99.52911,0,0,0,3.27628-9.86365c0.26165-1.13425-.698-2.77266-1.51552-3.87127A13.31108,13.31108,0,0,0,38.37214,43.623c-2.58746-1.77076-4.06272-1.206-5.035,1.80768-0.26233.813-.48166,2.2254-0.91115,2.30249-2.49745.44833-2.08813,2.699-2.54639,4.14224-0.55432,1.7457-.33973,3.76832,1.81936,4.71013C34.3136,57.726,36.95012,58.81613,39.89977,60.06456Zm1.81343,2.23368a7.07562,7.07562,0,0,0,1.05227,1.48126c1.60415,1.38423,3.32172,2.6382,4.91,4.0393,1.24532,1.09835,2.10872.84212,2.75847-.543q1.66913-3.55759,3.24289-7.15922a1.28254,1.28254,0,0,0-.0754-1.11514c-1.96161-2.21759-3.91292-4.45363-6.03113-6.516A2.89835,2.89835,0,0,0,45.2922,52.266C44.02235,55.48643,42.93163,58.77747,41.71321,62.29824ZM59.30859,41.34691c-0.48722-.43423-0.97238-0.89436-1.48606-1.31993-3.0542-2.5298-5.32071-2.21892-7.49448,1.12093Q48.33311,44.213,46.57866,47.43a1.81077,1.81077,0,0,0,.1958,1.67805C48.75,51.1108,50.83337,53.00744,53.07417,55.122ZM48.43672,71.63821c-2.92818,6.05772-2.247,8.81668,2.81,11.71425,1.487-2.24844,2.98623-4.51536,4.62022-6.98607C53.2367,74.69264,50.9147,73.21505,48.43672,71.63821ZM45.36161,46.39969c1.79047-2.89991,3.53936-5.73241,5.30417-8.59075-4.09767-1.456-10.24609-.14769-12.58307,2.62838C40.557,42.46406,43.03143,44.491,45.36161,46.39969ZM44.584,76.79988c0.38317-1.28912.61542-2.10292,0.86677-2.91075,1.40249-4.50611,1.40411-4.50561-2.47167-7.03073-1.38819-.90444-3.93371-0.19953-5.33551,1.4939-1.27347,1.53838.15142,2.26994,1.00721,3.07826C40.486,73.16384,42.39042,74.82389,44.584,76.79988ZM40.09482,64.80863c-2.11353-3.241-2.4077-3.42745-8.49388-5.45725,0.18619,0.85394.3099,1.71064,0.56131,2.528C33.996,67.8388,35.1619,68.28514,40.09482,64.80863Zm-6.36631,5.0837a43.91859,43.91859,0,0,1-3.2525-5.105,40.50457,40.50457,0,0,1-1.5614-5.25906c-0.49022-1.64725-1.02106-3.28243-1.53406-4.92291l-0.639.24689C27.59914,60.3208,28.31749,65.84837,33.72852,69.89234ZM71.15976,47.968a15.11479,15.11479,0,0,0-.25578,2.39751,12.0641,12.0641,0,0,0,.47567,2.06622c0.63433-.45487,1.59679-0.77917,1.83971-1.38979C73.87336,49.39868,73.11351,48.35453,71.15976,47.968ZM91.61923,28.25637c-1.79664,3.48968-1.66364,3.93577,1.38189,5.703C92.50373,31.90669,92.06145,30.08154,91.61923,28.25637ZM21.55584,58.88615q0.31664,0.39708.63334,0.79418,1.094-.55545,2.18812-1.1109-0.54058-.95857-1.08123-1.91717Q22.42592,57.7692,21.55584,58.88615Z"/>
</svg>