<svg xmlns="http://www.w3.org/2000/svg" data-name="Layer 1" viewBox="0 0 100 125" x="0px" y="0px"><title>Restaurant</title><path style="fill:#323232;" d="M48.89044,32.72522a17.25049,17.25049,0,1,0,17.251,17.251A17.2699,17.2699,0,0,0,48.89044,32.72522Z"/><path style="fill:#323232;" d="M48.89044,20.853a29.12271,29.12271,0,1,0,29.1228,29.12268A29.12261,29.12261,0,0,0,48.89044,20.853Zm0,50.37317a21.25049,21.25049,0,1,1,21.251-21.25A21.27428,21.27428,0,0,1,48.89044,71.2262Z"/><path style="fill:#323232;" d="M95,30.98035c.00006-5.56635-3.6416-10.0788-8.13379-10.0788s-8.13379,4.51239-8.13379,10.07886c0,4.18133,2.18537,6.6665,4.0246,8.68731,1.20544,1.32441,2.47443,2.84766,2.4494,4.93409-.1358,11.29553-2.88946,25.5625-2.22565,30.07122.39167,2.65967,1.662,4.47382,3.8855,4.47394,2.22333-.00006,3.49372-1.81433,3.88532-4.47394.66388-4.50872-2.08972-18.77569-2.22553-30.07122-.02508-2.08637,1.2439-3.60962,2.44928-4.93415C92.8147,37.64685,95,35.16174,95,30.98035Z"/><path style="fill:#323232;" d="M17.8125,21.6861a.84736.84736,0,0,0-.76715-.7826.825.825,0,0,0-.88092.87452l.79822,12.76763a.82508.82508,0,0,1-.82343.87653h-.3244a.8251.8251,0,0,1-.82446-.79413l-.48505-12.93243a.825.825,0,0,0-.82446-.79407H13.6767a.825.825,0,0,0-.825.83533l.1607,12.84991a.82507.82507,0,0,1-.82495.83539H11.861a.825.825,0,0,1-.82489-.83539l.16071-12.84991a.825.825,0,0,0-.825-.83533h-.00409a.82506.82506,0,0,0-.82447.79407l-.485,12.93243a.82511.82511,0,0,1-.82447.79413H7.90924a.825.825,0,0,1-.82336-.87653L7.88409,21.778a.82511.82511,0,0,0-.88092-.87452.84736.84736,0,0,0-.76715.7826L5.0387,35.36493c-.18879,2.1571.25683,3.4881,2.6,5.16022,2.1687,1.54766,2.75488,3.23266,2.8338,6.1477.40644,15.01941-2.21692,18.67731-2.21692,30.43445,0,1.93213,1.88434,2.04736,3.76868,2.03931,1.8844.00805,3.76868-.10718,3.76868-2.03931,0-11.75714-2.62329-15.415-2.21686-30.43445.07886-2.915.665-4.6,2.8338-6.1477,2.34314-1.67212,2.78876-3.00312,2.6-5.16022Z"/></svg>